<?xml version="1.0" encoding="iso-8859-1"?>
<!-- Uploaded to: SVG Repo, www.svgrepo.com, Generator: SVG Repo Mixer Tools -->
<!DOCTYPE svg PUBLIC "-//W3C//DTD SVG 1.1//EN" "http://www.w3.org/Graphics/SVG/1.1/DTD/svg11.dtd">
<svg fill="#000000" version="1.1" id="Capa_1" xmlns="http://www.w3.org/2000/svg" xmlns:xlink="http://www.w3.org/1999/xlink" 
	 width="800px" height="800px" viewBox="0 0 405.047 405.047"
	 xml:space="preserve">
    <g>
        <path
            d="M150.803 111.493C140.462 87.155 100 20 100 20s-40.462 67.605-50.803 91.493c-2.248 5.408-2.697 10.817-2.697 14.873C46.5 156.113 70.328 180 100 180s53.5-23.887 53.5-53.634c0-4.056-.449-9.465-2.697-14.873zM98.651 167.38c-7.193 0-10.341-7.662.449-8.113 17.084 0 34.618-16.676 34.618-34.704 0-9.014 7.643-7.662 7.643 0 0 32.451-30.571 42.817-42.71 42.817z"
        ></path>
    </g>
</svg>